# AST/ASF file generated using VICON BodyLanguage
# -----------------------------------------------
:version 1.10
:name VICON
:units
  mass 1.0
  length 0.45
  angle deg
:documentation
   .ast/.asf automatically generated from VICON data using
   VICON BodyBuilder and BodyLanguage model FoxedUp or BRILLIANT.MOD
:root
   order TX TY TZ RX RY RZ
   axis XYZ
   position 0 0 0  
   orientation 0 0 0 
:bonedata
  begin
     id 1 
     name lhipjoint
     direction 0.646657 -0.683706 0.338203 
     length 2.4948 
     axis 0 0 0  XYZ
  end
  begin
     id 2 
     name lfemur
     direction 0.34202 -0.939693 0  
     length 6.79491  
     axis 0 0 20  XYZ
    dof rx ry rz
    limits (-160.0 20.0)
           (-70.0 70.0)
           (-60.0 70.0)
  end
  begin
     id 3 
     name ltibia
     direction 0.34202 -0.939693 0   
     length 7.56807   
     axis 0 0 20   XYZ
    dof rx
    limits (-10.0 170.0)
  end
  begin
     id 4 
     name lfoot
     direction 0.0679796 -0.186772 0.980048   
     length 2.53018   
     axis -90 7.62852e-016 20   XYZ
    dof rx rz
    limits (-45.0 90.0)
           (-70.0 20.0)
  end
  begin
     id 5 
     name ltoes
     direction 1.53625e-011 -4.21881e-011 1   
     length 1.26912   
     axis -90 7.62852e-016 20   XYZ
    dof rx
    limits (-90.0 20.0)
  end
  begin
     id 6 
     name rhipjoint
     direction -0.618868 -0.704065 0.348274   
     length 2.42265  
     axis 0 0 0  XYZ 
  end
  begin
     id 7 
     name rfemur
     direction -0.34202 -0.939693 0   
     length 6.73814   
     axis 0 0 -20   XYZ
    dof rx ry rz
    limits (-160.0 20.0)
           (-70.0 70.0)
           (-70.0 60.0)
  end
  begin
     id 8 
     name rtibia
     direction -0.34202 -0.939693 0   
     length 7.66799   
     axis 0 0 -20   XYZ
    dof rx
    limits (-10.0 170.0)
 end
 begin
     id 9 
     name rfoot
     direction -0.0727352 -0.199838 0.977125   
     length 2.57224  
     axis -90 -7.62852e-016 -20   XYZ
    dof rx rz
    limits (-45.0 90.0)
           (-20.0 70.0)
  end
  begin
     id 10 
     name rtoes
     direction -1.53501e-011 -4.21858e-011 1   
     length 1.28858   
     axis -90 -7.62852e-016 -20   XYZ
    dof rx
    limits (-90.0 20.0)
  end
  begin
     id 11 
     name lowerback
     direction -0.0172471 0.995767 -0.0902851   
     length 2.20206   
     axis 0 0 0   XYZ
    dof rx ry rz
    limits (-20.0 45.0)
           (-30.0 30.0)
           (-30.0 30.0)
  end
  begin
     id 12 
     name upperback
     direction -0.000110737 0.999714 0.0239043   
     length 2.19523   
     axis 0 0 0   XYZ
    dof rx ry rz
    limits (-20.0 45.0)
           (-30.0 30.0)
           (-30.0 30.0)
  end
  begin
     id 13 
     name thorax
     direction 0.00704869 0.997783 0.0661741   
     length 2.21977   
     axis 0 0 0   XYZ
    dof rx ry rz
    limits (-20.0 45.0)
           (-30.0 30.0)
           (-30.0 30.0)
  end
  begin
     id 14 
     name lowerneck
     direction -0.00407501 0.995527 0.0943846   
     length 1.83142   
     axis 0 0 0   XYZ
    dof rx ry rz
    limits (-20.0 45.0)
           (-30.0 30.0)
           (-30.0 30.0)
  end
  begin
     id 15 
     name upperneck
     direction 0.0640586 0.986486 -0.150807   
     length 1.84616   
     axis 0 0 0   XYZ
    dof rx ry rz
    limits (-20.0 45.0)
           (-30.0 30.0)
           (-30.0 30.0)
  end
  begin
     id 16
     name head
     direction 0.0188017 0.99791 -0.0618239  
     length 1.85932  
     axis 0 0 0   XYZ
    dof rx ry rz
    limits (-20.0 45.0)
           (-30.0 30.0)
           (-30.0 30.0)
  end
  begin
     id 17 
     name lclavicle
     direction 0.976074 0.206905 0.066852  
     length 3.81043  
     axis 0 0 0   XYZ
    dof ry rz
    limits (-20.0 10.0)
           (0.0 20.0)
  end
  begin
     id 18 
     name lhumerus
     direction 1 -4.48971e-011 1.86916e-027   
     length 5.37587   
     axis 180 -30 -90   XYZ
    dof rx ry rz
    limits (-60.0 90.0)
           (-90.0 90.0)
           (-90.0 90.0)
  end
  begin
     id 19
     name lradius
     direction 1 -4.48968e-011 1.69187e-027   
     length 3.35977   
     axis 180 -30 -90   XYZ
    dof rx
    limits (-10.0 170.0)
  end
  begin
     id 20
     name lwrist
     direction 1 -4.48968e-011 5.8978e-027   
     length 1.67988   
     axis -3.27506e-015 90 90   XYZ
    dof ry
    limits (-180.0 0.0)
 end
  begin
     id 21 
     name lhand
     direction 1 -4.49028e-011 1.18071e-026   
     length 0.561859   
     axis -7.52654e-015 90 90   XYZ
    dof rx rz
    limits (-90.0 90.0)
           (-45.0 45.0)
  end
  begin
     id 22 
     name lfingers
     direction 1 -4.48927e-011 2.35758e-026   
     length 0.452985   
     axis -1.50534e-014 90 90   XYZ
    dof rx
    limits (0.0 90.0)
  end
  begin
     id 23
     name lthumb
     direction 0.707107 -6.34898e-011 0.707107   
     length 0.650399   
     axis -90 45 5.69224e-014   XYZ
    dof rx rz
    limits (-45.0 45.0)
           (-45.0 45.0)
  end
  begin
     id 24 
     name rclavicle
     direction -0.988403 0.151789 0.00439714   
     length 3.6942  
     axis 0 0 0   XYZ 
    dof ry rz
    limits (-10.0 20.0)
           (-20.0 0.0)
  end
  begin
     id 25 
     name rhumerus
     direction -1 -4.48978e-011 1.62495e-027  
     length 5.22819   
     axis 180 30 90   XYZ
    dof rx ry rz
    limits (-90.0 60.0)
           (-90.0 90.0)
           (-90.0 90.0)
  end
  begin
     id 26 
     name rradius
     direction -1 -4.48961e-011 3.47796e-027   
     length 3.40764   
     axis 180 30 90   XYZ
    dof rx
    limits (-10.0 170.0)
  end
  begin
     id 27 
     name rwrist
     direction -1 -4.48949e-011 5.89602e-027   
     length 1.70382   
     axis -3.27506e-015 -90 -90   XYZ
    dof ry
    limits (-180.0 0.0)
  end
  begin
     id 28
     name rhand
     direction -1 -4.48977e-011 1.17973e-026   
     length 0.583255   
     axis -7.52654e-015 -90 -90   XYZ
    dof rx rz
    limits (-90.0 90.0)
           (-45.0 45.0)
  end
  begin
     id 29
     name rfingers
     direction -1 -4.49099e-011 2.36408e-026   
     length 0.470235   
     axis -1.50534e-014 -90 -90   XYZ
    dof rx
    limits (0.0 90.0)
  end
  begin
     id 30
     name rthumb
     direction -0.707107 -6.35011e-011 0.707107   
     length 0.675167   
     axis -90 -45 -5.69224e-014   XYZ
    dof rx rz
    limits (-45.0 45.0)
           (-45.0 45.0)
  end
:hierarchy
  begin
    root lhipjoint rhipjoint lowerback
    lhipjoint lfemur
    lfemur ltibia
    ltibia lfoot
    lfoot ltoes
    rhipjoint rfemur
    rfemur rtibia
    rtibia rfoot
    rfoot rtoes
    lowerback upperback
    upperback thorax
    thorax lowerneck lclavicle rclavicle
    lowerneck upperneck
    upperneck head
    lclavicle lhumerus
    lhumerus lradius
    lradius lwrist
    lwrist lhand lthumb
    lhand lfingers
    rclavicle rhumerus
    rhumerus rradius
    rradius rwrist
    rwrist rhand rthumb
    rhand rfingers
  end

#!OML:ASF G:\JayActor3\Patient Classification 1\Patient 1\Session 2\male.ASF
:FULLY-SPECIFIED
:DEGREES
166
root 48.7741 16.5613 -5.71775 151.743 -86.7005 -152.072
lowerback -2.75996 0.16777 -0.454129
upperback 2.96595 0.205111 0.485083
thorax 4.60374 0.0687059 0.768474
lowerneck -9.76547 -2.8249 -2.91154
upperneck 6.32538 -4.14138 7.90932
head 3.71141 -1.75808 2.63314
rclavicle 8.22472e-015 6.95746e-016
rhumerus -31.4535 -8.97505 -83.5762
rradius 26.7209
rwrist -4.27473
rhand -24.4967 3.47665
rfingers 7.12502
rthumb 1.99768 -26.4937
lclavicle 8.22472e-015 6.95746e-016
lhumerus -28.9059 2.32389 87.7842
lradius 24.8785
lwrist 8.74956
lhand -19.2981 17.5597
lfingers 7.12502
lthumb 7.01738 47.4233
rfemur -11.193 2.47271 20.6247
rtibia 36.4806
rfoot -24.5419 -5.98283
rtoes 14.5382
lfemur -5.57579 1.59743 -17.7202
ltibia 26.9928
lfoot -20.183 12.6608
ltoes -2.06628
167
root 48.7741 16.5616 -5.71794 151.657 -86.7152 -151.976
lowerback -2.76112 0.164541 -0.454535
upperback 2.96773 0.200802 0.484836
thorax 4.60632 0.066531 0.768168
lowerneck -9.75604 -2.80929 -2.90535
upperneck 6.27053 -4.1165 7.89868
head 3.69149 -1.74741 2.63072
rclavicle 7.91411e-015 7.65321e-015
rhumerus -31.4519 -8.99254 -83.5791
rradius 26.709
rwrist -4.26509
rhand -24.4932 3.47398
rfingers 7.12502
rthumb 2.001 -26.4964
lclavicle 7.91411e-015 7.65321e-015
lhumerus -28.9057 2.33388 87.7796
lradius 24.8707
lwrist 8.74236
lhand -19.2998 17.5736
lfingers 7.12502
lthumb 7.01574 47.4373
rfemur -11.2025 2.47003 20.6241
rtibia 36.4792
rfoot -24.5442 -5.9917
rtoes 14.5426
lfemur -5.59021 1.60237 -17.7198
ltibia 26.9916
lfoot -20.1735 12.6448
ltoes -2.06506
168
root 48.7741 16.562 -5.71813 151.575 -86.7311 -151.88
lowerback -2.7633 0.160921 -0.456193
upperback 2.96789 0.196063 0.484763
thorax 4.60781 0.0641201 0.768715
lowerneck -9.75494 -2.79862 -2.90375
upperneck 6.22968 -4.09853 7.88867
head 3.67767 -1.73975 2.62866
rclavicle -1.39149e-015 -1.39149e-015
rhumerus -31.4529 -9.0073 -83.5817
rradius 26.699
rwrist -4.25797
rhand -24.4919 3.47584
rfingers 7.12502
rthumb 2.00227 -26.4945
lclavicle -1.39149e-015 -1.39149e-015
lhumerus -28.9065 2.34609 87.7745
lradius 24.8602
lwrist 8.73244
lhand -19.3085 17.5937
lfingers 7.12502
lthumb 7.00739 47.4578
rfemur -11.2141 2.46853 20.6227
rtibia 36.477
rfoot -24.5476 -5.99973
rtoes 14.5521
lfemur -5.60738 1.60865 -17.72
ltibia 26.99
lfoot -20.1611 12.629
ltoes -2.07401
169
root 48.7743 16.5626 -5.71846 151.444 -86.7523 -151.728
lowerback -2.76832 0.155241 -0.460438
upperback 2.96477 0.188736 0.485676
thorax 4.60752 0.0603625 0.771559
lowerneck -9.75997 -2.79282 -2.90643
upperneck 6.19979 -4.08726 7.87938
head 3.66865 -1.7351 2.627
rclavicle 5.81445e-015 8.34896e-015
rhumerus -31.455 -9.02115 -83.5835
rradius 26.6896
rwrist -4.25119
rhand -24.4928 3.48635
rfingers 7.12502
rthumb 2.00145 -26.484
lclavicle 5.81445e-015 8.34896e-015
lhumerus -28.9071 2.35829 87.7694
lradius 24.8468
lwrist 8.72144
lhand -19.3142 17.609
lfingers 7.12502
lthumb 7.00184 47.4732
rfemur -11.2325 2.46539 20.6223
rtibia 36.474
rfoot -24.5525 -6.01163
rtoes 14.561
lfemur -5.63374 1.61503 -17.7188
ltibia 26.9876
lfoot -20.1445 12.6066
ltoes -2.07576
170
root 48.7742 16.563 -5.71865 151.352 -86.7678 -151.619
lowerback -2.77332 0.151686 -0.461945
upperback 2.96122 0.184139 0.486174
thorax 4.60674 0.0580672 0.772621
lowerneck -9.7666 -2.79044 -2.9137
upperneck 6.17737 -4.08048 7.87079
head 3.66251 -1.73254 2.62598
rclavicle -1.95057e-015 -6.75868e-015
rhumerus -31.4619 -9.03439 -83.5844
rradius 26.6816
rwrist -4.24467
rhand -24.4952 3.49858
rfingers 7.12502
rthumb 1.99911 -26.4718
lclavicle -1.95057e-015 -6.75868e-015
lhumerus -28.9103 2.37738 87.7614
lradius 24.8279
lwrist 8.70131
lhand -19.3185 17.6156
lfingers 7.12502
lthumb 6.99772 47.4799
rfemur -11.2472 2.46277 20.6213
rtibia 36.4713
rfoot -24.5567 -6.02052
rtoes 14.5637
lfemur -5.65461 1.61624 -17.7191
ltibia 26.9853
lfoot -20.1325 12.5947
ltoes -2.08317
171
root 48.7737 16.5632 -5.71872 151.308 -86.7762 -151.564
lowerback -2.77838 0.150489 -0.460992
upperback 2.95961 0.182529 0.486766
thorax 4.60797 0.057308 0.772607
lowerneck -9.77211 -2.79112 -2.92271
upperneck 6.15732 -4.07779 7.86248
head 3.65716 -1.732 2.62507
rclavicle 7.15625e-015 -1.2921e-015
rhumerus -31.4692 -9.04957 -83.5838
rradius 26.671
rwrist -4.23436
rhand -24.4991 3.51474
rfingers 7.12502
rthumb 1.99531 -26.4557
lclavicle 7.15625e-015 -1.2921e-015
lhumerus -28.9159 2.39778 87.7531
lradius 24.8087
lwrist 8.67999
lhand -19.3173 17.6128
lfingers 7.12502
lthumb 6.99888 47.4771
rfemur -11.2552 2.46174 20.6202
rtibia 36.469
rfoot -24.5603 -6.02725
rtoes 14.5554
lfemur -5.66558 1.61175 -17.7209
ltibia 26.9831
lfoot -20.1317 12.5919
ltoes -2.07318
172
root 48.7729 16.5632 -5.7187 151.266 -86.7801 -151.514
lowerback -2.78286 0.150555 -0.456483
upperback 2.9599 0.182378 0.487611
thorax 4.61083 0.0573602 0.77096
lowerneck -9.77841 -2.79482 -2.9346
upperneck 6.13929 -4.07899 7.85527
head 3.65285 -1.73334 2.62469
rclavicle 7.51655e-015 -1.98785e-015
rhumerus -31.475 -9.06808 -83.5822
rradius 26.6593
rwrist -4.22083
rhand -24.504 3.53481
rfingers 7.12502
rthumb 1.99062 -26.4356
lclavicle 7.51655e-015 -1.98785e-015
lhumerus -28.9205 2.42406 87.7438
lradius 24.7879
lwrist 8.65334
lhand -19.3152 17.6124
lfingers 7.12502
lthumb 7.00091 47.4767
rfemur -11.2588 2.4606 20.6205
rtibia 36.4676
rfoot -24.5642 -6.02919
rtoes 14.5562
lfemur -5.67105 1.60286 -17.722
ltibia 26.9816
lfoot -20.1366 12.5976
ltoes -2.06247
